<?xml version="1.0" encoding="UTF-8" standalone="no"?>
<!-- Created with Inkscape (http://www.inkscape.org/) -->

<svg
   xmlns:dc="http://purl.org/dc/elements/1.1/"
   xmlns:cc="http://creativecommons.org/ns#"
   xmlns:rdf="http://www.w3.org/1999/02/22-rdf-syntax-ns#"
   xmlns:svg="http://www.w3.org/2000/svg"
   xmlns="http://www.w3.org/2000/svg"
   xmlns:sodipodi="http://sodipodi.sourceforge.net/DTD/sodipodi-0.dtd"
   xmlns:inkscape="http://www.inkscape.org/namespaces/inkscape"
   width="744.09448819"
   height="1052.3622047"
   id="svg3064"
   version="1.1"
   inkscape:version="0.48.3.1 r9886"
   sodipodi:docname="New document 7">
  <defs
     id="defs3066" />
  <sodipodi:namedview
     id="base"
     pagecolor="#ffffff"
     bordercolor="#666666"
     borderopacity="1.0"
     inkscape:pageopacity="0.0"
     inkscape:pageshadow="2"
     inkscape:zoom="0.35"
     inkscape:cx="375"
     inkscape:cy="520"
     inkscape:document-units="px"
     inkscape:current-layer="layer1"
     showgrid="false"
     inkscape:window-width="1280"
     inkscape:window-height="751"
     inkscape:window-x="0"
     inkscape:window-y="0"
     inkscape:window-maximized="1" />
  <metadata
     id="metadata3069">
    <rdf:RDF>
      <cc:Work
         rdf:about="">
        <dc:format>image/svg+xml</dc:format>
        <dc:type
           rdf:resource="http://purl.org/dc/dcmitype/StillImage" />
        <dc:title></dc:title>
      </cc:Work>
    </rdf:RDF>
  </metadata>
  <g
     inkscape:label="Layer 1"
     inkscape:groupmode="layer"
     id="layer1">
    <path
       style="fill:#000000"
       d="m 169.14122,429.32054 c 0.53357,-13.94942 26.69391,-28.97937 37.51074,-42.7888 17.12655,-15.50761 35.37769,-30.49186 46.69317,-50.84164 11.97036,-16.20882 21.94853,-36.03136 39.61843,-46.564 27.1486,-8.92179 39.7669,21.31909 36.6447,43.28932 4.7508,17.5224 14.3957,47.64112 -15.4296,44.63576 -9.5042,-12.92409 -15.1499,-34.94244 -32.7662,-19.73332 -10.75746,10.37243 -28.17991,21.10333 -40.874,32.52518 -20.06794,14.0603 -38.40123,32.25741 -61.82691,40.39075 -3.17224,0.63058 -6.61779,0.54254 -9.57033,-0.91325 z m 18.23725,-4.57579 c 28.35929,-18.56283 56.39665,-38.5776 81.16631,-61.73424 10.99748,-3.76704 30.13578,-28.63146 37.10448,-5.5654 3.7151,13.46002 12.3219,21.72703 21.5562,13.60334 14.8329,-7.57327 -1.1198,-23.51825 -0.3489,-35.15125 -1.0057,-8.25358 -0.4398,-33.36402 -5.6733,-31.35359 0.077,-9.15451 -27.0673,-23.39412 -33.4278,-5.9354 -14.27056,8.13877 -20.14958,25.78046 -30.11133,37.28541 -11.3762,16.43179 -23.54146,31.60192 -39.80204,43.67236 -17.25381,14.84573 -29.18276,31.79257 -46.59766,46.75797 4.95274,3.65402 11.07445,1.22194 16.13404,-1.5792 z m 399.29839,-26.59132 c -18.3754,-12.11025 -27.5986,-34.22819 -27.2494,-55.52157 -15.3935,19.31976 -47.6447,-1.6973 -59.1252,23.22251 -3.7896,11.40899 -26.4348,45.53365 -26.9308,16.31015 -3.2238,-22.79117 8.72,-51.0303 34.2322,-53.49854 11.9056,-0.54818 18.0492,-3.2577 2.7152,-5.56958 -17.4002,1.59724 -39.5175,-14.37427 -18.6396,-29.19224 22.1317,-14.05664 53.6847,0.73306 65.2893,21.80609 7.524,6.16075 0.6464,34.8069 8.4833,13.49278 20.6406,-12.57928 23.4349,-34.91601 31.052,-56.21135 6.7073,-19.69456 28.2612,-33.47559 48.57301,-24.79329 20.63939,8.67134 42.26229,26.69988 44.13139,50.37859 2.4929,19.90281 -18.5835,19.82498 -20.0786,1.08544 -10.4406,-15.05051 -42.7849,-44.99695 -52.4854,-14.72066 -15.2409,18.49811 6.5788,38.02388 -5.0481,55.04323 -5.4196,9.17935 1.8517,21.40928 1.6612,31.61141 10.4641,19.48634 -7.4381,38.72149 -26.5805,26.55703 z m 10.4363,-0.30703 c 27.6265,2.06789 9.6447,-33.7251 10.1509,-50.78836 12.4863,-19.43623 -5.8561,-38.6096 5.772,-59.54696 5.158,-32.43126 39.23571,-14.44738 51.2319,3.14988 7.2516,6.70517 18.6233,35.4051 22.4756,10.73807 2.6097,-20.91256 -19.6088,-36.55034 -30.9747,-45.79084 -14.71749,-9.38453 -36.9744,-11.39024 -47.7464,3.86833 -15.2523,15.65417 -13.9364,40.95392 -25.2147,57.61988 -18.905,9.77336 -23.9232,33.83036 -15.502,52.48594 5.2629,9.39743 16.5886,30.78356 29.8074,28.26406 z m -112.2969,-9.60911 c 8.9194,-13.53607 13.7756,-34.56951 31.4318,-38.40541 16.2765,0.51642 50.4963,0.8816 41.2583,-25.58435 -6.8213,-20.04274 -28.0461,-31.64244 -48.0426,-33.66372 -21.024,-3.13793 -34.4878,30.33909 -6.1159,27.97612 10.2462,-1.0417 39.6617,13.49044 12.0234,11.24404 -23.2552,0.0437 -40.8984,21.46046 -40.0421,43.97542 2.4743,7.85743 -4.5956,26.61758 9.4871,14.4579 z m -413.624217,0.47259 c -3.13442,-22.70252 6.75457,-44.90937 10.35704,-66.9608 5.41991,-19.04882 17.28475,-42.2778 39.252937,-44.64985 21.40042,2.01971 42.34912,19.29056 41.16171,42.39674 -0.38668,22.07036 -12.58345,49.36912 -36.2274,53.60043 -21.8329,-8.98613 14.37707,-30.37469 -1.51837,-46 -23.06973,14.89875 -23.88569,47.91762 -46.472197,62.77172 -2.20194,0.46939 -4.72197,0.28296 -6.55372,-1.15824 z m 9.60938,-3.28335 c 16.06436,-16.55334 20.065827,-41.12245 36.296437,-57.59539 17.26254,-17.07289 16.8115,24.9202 5.35886,31.9923 -10.97006,15.64987 20.50558,8.20107 25.39861,-3.80808 11.05761,-16.3751 14.33763,-38.13161 6.24253,-56.21739 -7.23188,-12.65576 -32.11902,-26.37673 -42.38942,-15.0886 -19.326437,5.99904 -24.042707,30.07049 -29.483707,47.01154 -1.72008,16.97278 -16.7422,43.73989 -5.08636,55.5548 l 2.32853,-0.6576 z m 274.527437,0.56322 c -31.4148,-5.19815 -3.8779,-45.37963 18.4279,-39.05278 4.2715,8.66217 -14.5594,25.16832 7.423,19.30439 15.533,-2.56929 47.8139,-13.69533 31.3951,-33.14496 -15.698,-12.63553 -39.2433,-10.58008 -57.419,-3.47864 -26.5282,1.48954 -21.3829,-36.33109 -1.0752,-42.81005 20.3834,-11.94772 45.156,-6.89626 64.3675,4.86985 16.7533,10.42098 29.2366,27.11993 31.9009,46.74353 -1.2815,25.61165 -29.5646,36.23654 -50.2413,43.11978 -14.5028,3.81168 -29.783,6.45793 -44.7789,4.44888 z m 31.6079,-3.47811 c 20.6644,-5.26424 43.7799,-12.20521 57.1106,-30.1907 9.8737,-20.35341 -7.2209,-42.97692 -22.5996,-55.22454 -16.9431,-11.49576 -40.8565,-19.51104 -60.0991,-9.29375 -17.8541,1.62654 -32.9323,33.25344 -10.0413,39.28085 17.8514,-4.23444 37.4306,-9.8545 54.6201,-2.11852 22.2687,5.83121 15.3833,35.66816 -4.7643,37.6929 -8.5811,6.04519 -45.435,13.68393 -31.0653,-5.27629 10.684,-21.85848 -43.2997,7.36536 -23.7125,23.27031 12.5647,5.60096 27.3022,3.00787 40.5514,1.85974 z m -217.97135,-2.75379 c -5.0078,-2.92943 9.14403,-39.85427 9.64639,-60.00916 1.7716,-18.98618 5.08651,-46.62131 31.07987,-43.56596 27.88328,9.98583 10.48149,45.20783 -2.91462,60.83449 -7.58404,15.07895 -15.43081,50.27855 -37.81164,42.74063 z m 9.73359,-2.13926 c 21.2723,-12.52769 19.95661,-41.70633 36.51761,-58.49363 6.8821,-12.8968 12.61039,-33.9204 -5.95652,-40.38663 -29.77408,-1.53204 -24.40424,34.16932 -29.64029,53.85807 -0.13503,14.72663 -12.5464,35.39864 -5.71479,46.4052 z"
       id="path3050"
       inkscape:connector-curvature="0"
       sodipodi:nodetypes="ccccccccccccccccccccccccccccccccccccccccccccccccccccccccccccccccccccccccccccccccccccccccccccccccccccccccc"
       inkscape:export-xdpi="34.032192"
       inkscape:export-ydpi="34.032192"
       inkscape:export-filename="/home/elig/source/personal/openemotion-webapp/static/images/logo2-70.png" />
  </g>
</svg>
